<?xml version="1.0" encoding="utf-8"?>
<!-- Generator: Adobe Illustrator 24.0.1, SVG Export Plug-In . SVG Version: 6.00 Build 0)  -->
<svg version="1.1" id="Layer_2" xmlns="http://www.w3.org/2000/svg" xmlns:xlink="http://www.w3.org/1999/xlink" x="0px" y="0px"
	 viewBox="0 0 595.28 841.89" style="enable-background:new 0 0 595.28 841.89;" xml:space="preserve">
<style type="text/css">
	.st0{fill:#FCE90A;stroke:#FCE900;}
</style>
<path class="st0" d="M332.89,434.61c0,0,1.43-12-2.29-21.43c-3.71-9.43-5.14-17.43-5.14-17.43s-2.86-12.29,5.71-12
	c8.57,0.29,28,0,28,0s7.14-1.42,6,8.58s-1.43,18.28-1.43,18.28s-1.71,24,24.28,48.57c26,24.57,10,92.57,10,92.57
	s-1.88,10.05-6.85,19.53s-29.51,53.65-63.82,78.08s-104.78,48.52-104.78,48.52s-62.05,15.06-110.84,0s-65.06-30.12-65.06-30.12
	s-30.72-27.11-30.72-41.57l7.83-15.66c0,0,3.01-11.45,18.67,0c15.66,11.45,62.65,4.22,62.65,4.22s120.48-21.08,160.24-63.25
	c0,0,46.99-45.78,58.43-78.91C335.23,439.45,332.89,434.61,332.89,434.61z"/>
</svg>
